<?xml version="1.0" encoding="utf-8"?>
<!-- Generator: Adobe Illustrator 24.0.2, SVG Export Plug-In . SVG Version: 6.00 Build 0)  -->
<svg version="1.1" id="Calque_1" xmlns="http://www.w3.org/2000/svg" xmlns:xlink="http://www.w3.org/1999/xlink" x="0px" y="0px"
	 viewBox="0 0 113 100" style="enable-background:new 0 0 113 100;" xml:space="preserve">
<style type="text/css">
	.st0{fill:url(#SVGID_1_);}
	.st1{fill:url(#SVGID_2_);}
</style>
<g>
	<g>
		
			<linearGradient id="SVGID_1_" gradientUnits="userSpaceOnUse" x1="160.2871" y1="526.938" x2="219.3534" y2="526.938" gradientTransform="matrix(-0.7071 0.7071 0.7071 0.7071 -181.8525 -434.3044)">
			<stop  offset="0" style="stop-color:#473E75"/>
			<stop  offset="1" style="stop-color:#223786"/>
		</linearGradient>
		<path class="st0" d="M45.3,97.3c5.8,0.3,17.1-8.6,19.1-8.9c7.2-1.3,12.4,2,17.7,6.1c6.3,4.9,13.9,3.7,19.2-2.6
			c4.4-5.2,3.2-13.1-2.8-18.6c-4.8-4.4-13.1-4-18.2,1c-1.6,1.6-3.3,2.8-5.4,3.7c-6.3,2.7-12.2,1.4-18-1.8l0,0
			c-9.7-8.5-9.4-20.4-1.4-28.7c4-4.2,4.7-9.9,1.9-14.9c-2.5-4.4-6.6-7.9-12.3-7.5c-6,0.3-10.4,3.2-12.6,9c-1.9,4.9-0.4,9.3,2.4,13.5
			c1.6,2.4,4,4.1,4.9,7.1c2.4,7.5,0.8,13.9-4.5,19.7c-4.1,4.5-4.9,10-2,15.7C35.7,94.9,40,97,45.3,97.3z"/>
		
			<linearGradient id="SVGID_2_" gradientUnits="userSpaceOnUse" x1="-228.0265" y1="426.0387" x2="-136.8474" y2="426.0387" gradientTransform="matrix(-0.7071 -0.7071 -0.7071 0.7071 228.724 -402.8502)">
			<stop  offset="0" style="stop-color:#473E75"/>
			<stop  offset="1" style="stop-color:#223786"/>
		</linearGradient>
		<path class="st1" d="M9.6,19.8c1.5,5,5.1,8.4,10.5,9.4s9.5-1.4,13.4-4.6c6.5-5.3,14.3-5.7,21.3-1.4c7,4.4,9.2,10.9,8.6,18.7
			c-1.4,3.9-3.3,7.3-6.2,10.5c-3.4,3.7-4.2,8.8-2.3,13.6c2.2,5.3,6.4,8.6,12.4,8.7c5.3,0.1,9.8-2.1,12.3-6.9
			c2.8-5.5,2.2-11-1.7-15.8c-2.7-3.4-5-6.8-5.9-11.1l0,0l0,0c-0.2-6.1,1.3-11.6,5.6-16c4.1-4.2,4.7-9.1,2.6-14
			c-2.3-5.4-6.6-8.6-13-8.4C62.4,2.6,59,5.4,55.6,8.1c-5.5,4.3-13.7,4.7-19.6,1c-2.8-1.8-5.1-4.2-8.2-5.5C22.7,1.5,18.1,2.3,14,5.5
			C9.5,9,8,14.3,9.6,19.8z"/>
	</g>
</g>
</svg>
